<svg width="19" height="18" viewBox="0 0 19 18" fill="none" xmlns="http://www.w3.org/2000/svg">
<g clip-path="url(#clip0_5335_4647)">
<path d="M18.3292 17.0207L13.6819 12.4477C14.8989 11.1255 15.6466 9.37682 15.6466 7.45261C15.6461 3.33639 12.2556 0 8.07302 0C3.89042 0 0.5 3.33639 0.5 7.45261C0.5 11.5688 3.89042 14.9052 8.07302 14.9052C9.8802 14.9052 11.5377 14.2801 12.8397 13.241L17.505 17.832C17.7323 18.056 18.1014 18.056 18.3287 17.832C18.5565 17.6081 18.5565 17.2447 18.3292 17.0207ZM8.07302 13.7586C4.53408 13.7586 1.66522 10.9353 1.66522 7.45261C1.66522 3.96991 4.53408 1.14663 8.07302 1.14663C11.612 1.14663 14.4808 3.96991 14.4808 7.45261C14.4808 10.9353 11.612 13.7586 8.07302 13.7586Z" fill="#0C181C"/>
</g>
<defs>
<clipPath id="clip0_5335_4647">
<rect width="18" height="18" fill="white" transform="translate(0.5)"/>
</clipPath>
</defs>
</svg>
